<?xml version="1.0" encoding="UTF-8" standalone="no"?>
<svg
   xmlns:dc="http://purl.org/dc/elements/1.1/"
   xmlns:cc="http://creativecommons.org/ns#"
   xmlns:rdf="http://www.w3.org/1999/02/22-rdf-syntax-ns#"
   xmlns:svg="http://www.w3.org/2000/svg"
   xmlns="http://www.w3.org/2000/svg"
   xmlns:sodipodi="http://sodipodi.sourceforge.net/DTD/sodipodi-0.dtd"
   xmlns:inkscape="http://www.inkscape.org/namespaces/inkscape"
   height="32"
   width="32"
   x="0px"
   y="0px"
   version="1.1"
   viewBox="0 0 32 32"
   xml:space="preserve"
   id="Layer_1"
   inkscape:version="0.91 r13725"
   sodipodi:docname="email-at-square.svg"><sodipodi:namedview
     pagecolor="#ffffff"
     bordercolor="#666666"
     borderopacity="1"
     objecttolerance="10"
     gridtolerance="10"
     guidetolerance="10"
     inkscape:pageopacity="0"
     inkscape:pageshadow="2"
     inkscape:window-width="1114"
     inkscape:window-height="850"
     id="namedview4945"
     showgrid="false"
     inkscape:zoom="7.375"
     inkscape:cx="34.439945"
     inkscape:cy="16"
     inkscape:window-x="0"
     inkscape:window-y="128"
     inkscape:window-maximized="0"
     inkscape:current-layer="Layer_1" /><defs
     id="defs4251" /><metadata
     id="metadata4247"><rdf:RDF><cc:Work><dc:format>image/svg+xml</dc:format><dc:type
           rdf:resource="http://purl.org/dc/dcmitype/StillImage" /><cc:license
           rdf:resource="http://creativecommons.org/publicdomain/zero/1.0/" /><dc:publisher><cc:Agent
             rdf:about="http://openclipart.org/"><dc:title>Openclipart</dc:title></cc:Agent></dc:publisher><dc:title /><dc:date>2013-06-18T15:47:54</dc:date><dc:description>An &quot;at&quot; (@) sign in a square for email usually it is used.</dc:description><dc:source>https://openclipart.org/detail/179406/email-square-by-pnoq-179406</dc:source><dc:creator><cc:Agent><dc:title>pnoq</dc:title></cc:Agent></dc:creator><dc:subject><rdf:Bag><rdf:li>button</rdf:li><rdf:li>email</rdf:li><rdf:li>homepage</rdf:li><rdf:li>icon</rdf:li><rdf:li>icons</rdf:li><rdf:li>mail</rdf:li><rdf:li>square</rdf:li><rdf:li>website</rdf:li></rdf:Bag></dc:subject></cc:Work><cc:License
         rdf:about="http://creativecommons.org/publicdomain/zero/1.0/"><cc:permits
           rdf:resource="http://creativecommons.org/ns#Reproduction" /><cc:permits
           rdf:resource="http://creativecommons.org/ns#Distribution" /><cc:permits
           rdf:resource="http://creativecommons.org/ns#DerivativeWorks" /></cc:License></rdf:RDF></metadata><g
     transform="matrix(0.78731378,0,0,0.78731378,3.4029793,3.4029793)"
     id="g5461"><rect
       style="opacity:1;fill:#ebe9dd;fill-opacity:1;fill-rule:nonzero;stroke:none;stroke-width:15;stroke-linecap:square;stroke-linejoin:miter;stroke-miterlimit:4;stroke-dasharray:none;stroke-dashoffset:0;stroke-opacity:1"
       id="rect5403"
       width="28.421053"
       height="27.640867"
       x="1.8888845"
       y="2.4456389" /><path
       style="fill:#d84937"
       d="m -4.3222656,-4.3222656 0,40.6445316 40.6445316,0 0,-40.6445316 -40.6445316,0 z M 15.904297,4.3710938 c 1.922661,0 3.667486,0.3692658 5.238281,1.1074218 1.570723,0.729585 2.885664,1.7860698 3.941406,3.1679688 0.64367,0.841137 1.128892,1.7551486 1.455078,2.7421876 0.334726,0.978543 0.501929,2.008393 0.501954,3.089844 0,2.32609 -0.700572,4.132433 -2.09961,5.419922 -1.399038,1.287486 -3.372683,1.931641 -5.921875,1.93164 l -0.501953,0 0,-1.982422 c -0.257527,0.609466 -0.674931,1.086356 -1.25,1.429688 -0.566471,0.334756 -1.230204,0.501954 -1.99414,0.501953 -1.476385,0 -2.67849,-0.533344 -3.605469,-1.597656 -0.918452,-1.072881 -1.378915,-2.466895 -1.378907,-4.183594 0,-1.716624 0.463645,-3.110669 1.390626,-4.183594 0.926978,-1.072925 2.126007,-1.609362 3.59375,-1.609375 0.763863,8e-6 1.427625,0.170354 1.99414,0.513672 0.575084,0.343369 0.992488,0.820281 1.25,1.429688 l 0,-1.6875 2.689453,0 0,8.923828 c 1.064312,-0.163115 1.902283,-0.674854 2.511719,-1.533204 0.609363,-0.866918 0.91404,-1.974644 0.914062,-3.322265 -1.5e-5,-0.858349 -0.124154,-1.659525 -0.373046,-2.40625 C 24.010809,11.367679 23.633349,10.675425 23.126953,10.048828 22.311525,9.0016562 21.289927,8.1954212 20.0625,7.6289062 18.843643,7.0623913 17.520523,6.7793119 16.095703,6.7792969 c -0.995609,1.5e-5 -1.947582,0.1323695 -2.857422,0.3984375 -0.90984,0.257527 -1.75093,0.6400813 -2.523437,1.1464844 -1.2702745,0.8411368 -2.2621996,1.9305532 -2.9746096,3.2695312 -0.703833,1.330408 -1.0546925,2.772588 -1.0546875,4.326172 -8e-6,1.278917 0.2267206,2.481023 0.6816406,3.605469 0.463489,1.115875 1.1291757,2.102588 1.9960937,2.960937 0.8583488,0.841136 1.8400328,1.480218 2.9472658,1.917969 1.115802,0.446328 2.304628,0.66992 3.566406,0.669922 1.081525,0 2.16457,-0.202054 3.246094,-0.605469 1.081451,-0.403429 2.00364,-0.948101 2.767578,-1.634766 l 1.376953,2.085938 c -1.072881,0.83264 -2.243324,1.468499 -3.513672,1.90625 -1.261778,0.446329 -2.544983,0.669917 -3.849609,0.669922 -1.587935,0 -3.08646,-0.28507 -4.494141,-0.851563 C 10.002476,26.08663 8.7490536,25.2721 7.6503906,24.199219 6.5517266,23.126264 5.715702,21.886198 5.140625,20.478516 4.56557,19.062266 4.2773417,17.542208 4.2773438,15.919922 c 0,-1.562153 0.291332,-3.050546 0.875,-4.466797 0.5836829,-1.41625 1.4165228,-2.66142 2.4980468,-3.734375 1.081524,-1.064313 2.3400486,-1.8870201 3.7734374,-2.4707031 1.441959,-0.583639 2.935455,-0.8769341 4.480469,-0.8769531 z m -0.181641,8.2285152 c -0.755367,0 -1.359547,0.304657 -1.814453,0.914063 -0.446342,0.600822 -0.669933,1.420381 -0.669922,2.458984 -1.5e-5,1.055815 0.22358,1.88864 0.669922,2.498047 0.45492,0.609385 1.067337,0.914067 1.839844,0.914063 0.763937,7.3e-5 1.37515,-0.304642 1.830078,-0.914063 0.454897,-0.618035 0.681626,-1.450875 0.681641,-2.498047 -1.4e-5,-1.03853 -0.231831,-1.858147 -0.695313,-2.458984 -0.45492,-0.60937 -1.06929,-0.914053 -1.841797,-0.914063 z"
       id="path5401" /></g><path
     style="fill:#222222;fill-opacity:1"
     d="M 32,-9.7537245e-8 32,32 64,32 64,-9.7537246e-8 l -32,0 z M 47.924651,6.8444016 c 1.513738,0 2.887462,0.290728 4.124171,0.8718884 1.236652,0.5744124 2.271923,1.4061974 3.103123,2.494186 0.506771,0.662238 0.888792,1.381852 1.145603,2.158962 0.263535,0.77042 0.395176,1.581235 0.395196,2.432676 0,1.831363 -0.55157,3.253522 -1.653052,4.26718 -1.101482,1.013655 -2.65536,1.520807 -4.662374,1.520806 l -0.395195,0 0,-1.560788 c -0.202754,0.479841 -0.531382,0.855303 -0.984142,1.125613 -0.44599,0.263558 -0.968556,0.395196 -1.570014,0.395195 -1.162378,0 -2.108812,-0.419909 -2.838635,-1.257857 -0.72311,-0.844694 -1.085639,-1.94222 -1.085633,-3.293801 0,-1.351522 0.365034,-2.449073 1.094859,-3.293801 0.729823,-0.844729 1.673835,-1.267073 2.829409,-1.267083 0.6014,6e-6 1.123989,0.134122 1.570014,0.404421 0.452772,0.270339 0.7814,0.645818 0.984142,1.125613 l 0,-1.328592 2.117444,0 0,7.025853 c 0.837947,-0.128423 1.497693,-0.531322 1.977511,-1.207113 0.47976,-0.682537 0.719636,-1.554664 0.719653,-2.615665 -1.1e-5,-0.67579 -0.09775,-1.306567 -0.293704,-1.894474 C 54.30702,12.35291 54.00984,11.807888 53.611148,11.31456 52.96915,10.490107 52.164832,9.855347 51.198462,9.4093222 50.238839,8.9632972 49.197128,8.7404249 48.075348,8.7404131 47.291491,8.7404249 46.54199,8.8446294 45.82566,9.0541084 45.10933,9.256863 44.447129,9.5580532 43.838923,9.956751 c -1.000104,0.662239 -1.781061,1.519952 -2.341951,2.574147 -0.554137,1.047449 -0.830374,2.182897 -0.83037,3.406055 -6e-6,1.006909 0.1785,1.953344 0.536665,2.838636 0.364912,0.878543 0.889016,1.655396 1.571552,2.331186 0.67579,0.662238 1.448683,1.165396 2.320423,1.510044 0.878487,0.3514 1.814466,0.527437 2.807881,0.527438 0.851499,0 1.704196,-0.15908 2.555694,-0.476694 0.851442,-0.317625 1.577494,-0.746453 2.178953,-1.287074 l 1.084094,1.642288 c -0.844694,0.655549 -1.7662,1.15617 -2.766363,1.500817 -0.993415,0.351401 -2.0037,0.527435 -3.03085,0.527439 -1.250203,0 -2.430012,-0.22444 -3.538299,-0.670447 -1.108286,-0.439244 -2.095123,-1.080534 -2.960115,-1.925228 -0.864993,-0.844752 -1.523207,-1.821074 -1.975973,-2.929361 -0.452749,-1.115033 -0.679675,-2.311796 -0.679673,-3.589044 0,-1.229904 0.229369,-2.401737 0.688899,-3.516771 0.459542,-1.115033 1.115248,-2.095372 1.966747,-2.9401246 0.851499,-0.8379483 1.842352,-1.4856769 2.970879,-1.9452186 1.135274,-0.459507 2.311124,-0.6904223 3.527535,-0.6904372 z m -0.143008,6.4784234 c -0.594711,0 -1.07039,0.239861 -1.428544,0.719654 -0.351411,0.473036 -0.527448,1.118286 -0.527439,1.935992 -1.2e-5,0.831258 0.176028,1.486953 0.527439,1.966747 0.358165,0.479777 0.840329,0.719658 1.448534,0.719655 0.601459,5.7e-5 1.082675,-0.239849 1.440846,-0.719655 0.358147,-0.486587 0.536654,-1.142294 0.536665,-1.966747 -1.1e-5,-0.817649 -0.182523,-1.462944 -0.547429,-1.935992 -0.358165,-0.479765 -0.841867,-0.719646 -1.450072,-0.719654 z"
     id="path5488" /></svg>