<?xml version="1.0" encoding="UTF-8" standalone="no"?>
<svg
   xmlns:dc="http://purl.org/dc/elements/1.1/"
   xmlns:cc="http://creativecommons.org/ns#"
   xmlns:rdf="http://www.w3.org/1999/02/22-rdf-syntax-ns#"
   xmlns:svg="http://www.w3.org/2000/svg"
   xmlns="http://www.w3.org/2000/svg"
   id="svg2"
   height="32"
   width="32"
   version="1.1">
  <metadata
     id="metadata14">
    <rdf:RDF>
      <cc:Work
         rdf:about="">
        <dc:format>image/svg+xml</dc:format>
        <dc:type
           rdf:resource="http://purl.org/dc/dcmitype/StillImage" />
        <dc:title></dc:title>
      </cc:Work>
    </rdf:RDF>
  </metadata>
  <defs
     id="defs12" />
  <rect
     id="rect4"
     style="fill:#3b5998;fill-opacity:1;stroke:none"
     y="0"
     x="0"
     height="32"
     width="32" />
  <rect
     id="rect6"
     style="fill:#6d84b4"
     y="25.027098"
     x="0.94632256"
     height="4.6552258"
     width="30.107355" />
  <path
     id="path8"
     style="fill:#ffffff"
     d="M 23.580904,29.680517 H 18.116903 V 16.456 h -2.729806 v -4.557419 h 2.729806 V 9.1623227 c 0,-3.7179355 1.54142,-5.9287743 5.920775,-5.9287743 h 3.645935 V 7.791484 h -2.278967 c -1.704775,0 -1.817549,0.6369032 -1.817549,1.8255484 l -0.0062,2.2810326 h 4.128516 l -0.483097,4.557419 h -3.645419 v 13.225033 z" />
  <path
     id="path4"
     style="fill:#222222;fill-opacity:1;stroke:none"
     d="m 32,0 0,32 32,0 0,-32 -32,0 z m 24.03125,3.21875 3.65625,0 0,4.5625 -2.28125,0 c -1.70478,0 -1.8125,0.655104 -1.8125,1.84375 l 0,2.28125 4.125,0 -0.5,4.5625 -3.625,0 0,13.21875 -5.46875,0 0,-13.21875 -2.75,0 0,-4.5625 2.75,0 0,-2.75 c 0,-3.717936 1.52689,-5.9375 5.90625,-5.9375 z" />
</svg>
