<?xml version="1.0" encoding="UTF-8" standalone="no"?>
<!-- Created with Inkscape (http://www.inkscape.org/) -->

<svg
   xmlns:dc="http://purl.org/dc/elements/1.1/"
   xmlns:cc="http://creativecommons.org/ns#"
   xmlns:rdf="http://www.w3.org/1999/02/22-rdf-syntax-ns#"
   xmlns:svg="http://www.w3.org/2000/svg"
   xmlns="http://www.w3.org/2000/svg"
   xmlns:sodipodi="http://sodipodi.sourceforge.net/DTD/sodipodi-0.dtd"
   xmlns:inkscape="http://www.inkscape.org/namespaces/inkscape"
   id="svg4287"
   version="1.1"
   inkscape:version="0.48.4 r9939"
   width="32"
   height="23.216352"
   xml:space="preserve"
   sodipodi:docname="gmail.svg"><metadata
     id="metadata4293"><rdf:RDF><cc:Work
         rdf:about=""><dc:format>image/svg+xml</dc:format><dc:type
           rdf:resource="http://purl.org/dc/dcmitype/StillImage" /></cc:Work></rdf:RDF></metadata><defs
     id="defs4291"><clipPath
       clipPathUnits="userSpaceOnUse"
       id="clipPath4301"><path
         d="m 0,308.302 308.302,0 L 308.302,0 0,0 0,308.302 z"
         id="path4303"
         inkscape:connector-curvature="0" /></clipPath></defs><sodipodi:namedview
     pagecolor="#ffffff"
     bordercolor="#666666"
     borderopacity="1"
     objecttolerance="10"
     gridtolerance="10"
     guidetolerance="10"
     inkscape:pageopacity="0"
     inkscape:pageshadow="2"
     inkscape:window-width="1855"
     inkscape:window-height="1056"
     id="namedview4289"
     showgrid="false"
     fit-margin-top="0"
     fit-margin-left="0"
     fit-margin-right="0"
     fit-margin-bottom="0"
     inkscape:zoom="12.819008"
     inkscape:cx="26.945627"
     inkscape:cy="18.450597"
     inkscape:window-x="65"
     inkscape:window-y="24"
     inkscape:window-maximized="1"
     inkscape:current-layer="g4295" /><g
     id="g4295"
     inkscape:groupmode="layer"
     inkscape:label="gmail"
     transform="matrix(1.25,0,0,-1.25,-363.76926,137.41485)"><g
       id="g4896"
       transform="matrix(0.11081791,0,0,0.11081791,258.76569,81.23461)"><rect
         transform="scale(1,-1)"
         y="-258.9588"
         x="291.01541"
         height="167.5808"
         width="231.0096"
         id="rect4874"
         style="fill:#ebe9dd;fill-opacity:1;fill-rule:nonzero;stroke:none" /><path
         sodipodi:nodetypes="cccccccc"
         inkscape:connector-curvature="0"
         id="path4354"
         transform="matrix(0.8,0,0,-0.8,0,308.303)"
         d="m 652.53125,86.40625 -147.40625,107.6875 -105.53125,77.0625 9.90625,0 100.5625,-73.4375 100.5625,73.40625 c 13.989,0.008 27.90036,0.0312 41.90625,0.0312 0,-65.39572 0,-127.73878 0,-184.75 z"
         style="fill:#aba9a0;fill-opacity:1;fill-rule:nonzero;stroke:none" /><rect
         transform="scale(1,-1)"
         y="-245.51465"
         x="495.7146"
         height="154.13664"
         width="26.3104"
         id="rect4894"
         style="fill:#a7261b;fill-opacity:1;fill-rule:nonzero;stroke:none" /><path
         sodipodi:nodetypes="ccccccccccc"
         inkscape:connector-curvature="0"
         id="path4878"
         d="m 291.01541,258.9588 c 0,-55.86667 0,-111.73333 0,-167.599999 8.76667,0 17.53334,0 26.3,0 l 0,125.024999 c 32.20673,-23.48433 62.56776,-45.75581 90.725,-66.25 42.52655,31.04271 73.33507,53.5495 113.975,83.225 0,8.53333 0,17.06667 0,25.6 -5.275,0 -10.55,0 -15.825,0 -32.92864,-24.12692 -65.92887,-48.15617 -98.9,-72.225 -32.94216,24.09709 -65.95871,48.09255 -98.875,72.225 -5.8,0 -11.6,0 -17.4,0 z"
         style="fill:#e73c2e;fill-opacity:1;fill-rule:nonzero;stroke:none" /></g></g></svg>