<?xml version="1.0" encoding="UTF-8" standalone="no"?>
<svg
   xmlns:dc="http://purl.org/dc/elements/1.1/"
   xmlns:cc="http://creativecommons.org/ns#"
   xmlns:rdf="http://www.w3.org/1999/02/22-rdf-syntax-ns#"
   xmlns:svg="http://www.w3.org/2000/svg"
   xmlns="http://www.w3.org/2000/svg"
   id="svg4206"
   height="32"
   width="32"
   version="1.1">

<g id="color">
  <rect
     width="32"
     height="32"
     x="1.1743164e-06"
     y="1.8493653e-06"
     style="fill:#d84937;fill-opacity:1;fill-rule:nonzero;stroke:none"
     id="rect4210" />
  <path
     d="m 5.985135,7.51535 c 3.3324,2.443125 6.668437,4.8689 10.00345,7.308438 3.337938,-2.436675 6.692637,-4.8658755 10.026275,-7.308438 l -20.029725,0 z m 0.9135625,4.31655 0,12.65275 18.0427375,0 0,-12.4472 c -2.898825,2.116975 -5.551663,4.0702 -8.8615,6.48625 -2.8506,-2.0748 -5.920688,-4.314288 -9.1812375,-6.6918 z"
     style="fill:#ebe9dd;fill-opacity:1;fill-rule:nonzero;stroke:none"
     id="path4212" />
</g>

<g id="bw" transform="translate(32,0)">
  <path
     d="m -2.5e-6,0 0,32 31.9999995,0 0,-32 L -2.5e-6,0 Z m 6,7.5 19.9999995,0 c -3.333638,2.4425625 -6.662062,4.875825 -10,7.3125 C 12.664984,12.372962 9.3323975,9.943125 5.9999975,7.5 Z m 0.90625,4.34375 c 3.2605505,2.377512 6.3368995,4.6127 9.1874995,6.6875 3.309838,-2.41605 5.944925,-4.383025 8.84375,-6.5 l 0,12.46875 -18.0312495,0 0,-12.65625 z"
     style="fill:#222222;fill-opacity:1;fill-rule:nonzero;stroke:none"
     id="path4182" />
</g>
</svg>
