<?xml version="1.0" encoding="UTF-8" standalone="no"?>
<!-- Created with Inkscape (http://www.inkscape.org/) -->

<svg
   xmlns:dc="http://purl.org/dc/elements/1.1/"
   xmlns:cc="http://creativecommons.org/ns#"
   xmlns:rdf="http://www.w3.org/1999/02/22-rdf-syntax-ns#"
   xmlns:svg="http://www.w3.org/2000/svg"
   xmlns="http://www.w3.org/2000/svg"
   xmlns:sodipodi="http://sodipodi.sourceforge.net/DTD/sodipodi-0.dtd"
   xmlns:inkscape="http://www.inkscape.org/namespaces/inkscape"
   id="svg4287"
   version="1.1"
   inkscape:version="0.48.4 r9939"
   width="32"
   height="32"
   xml:space="preserve"
   sodipodi:docname="gmail_square_2_gray.svg"><metadata
     id="metadata4293"><rdf:RDF><cc:Work
         rdf:about=""><dc:format>image/svg+xml</dc:format><dc:type
           rdf:resource="http://purl.org/dc/dcmitype/StillImage" /><dc:title></dc:title></cc:Work></rdf:RDF></metadata><defs
     id="defs4291"><clipPath
       clipPathUnits="userSpaceOnUse"
       id="clipPath4301"><path
         d="m 0,308.302 308.302,0 L 308.302,0 0,0 0,308.302 z"
         id="path4303"
         inkscape:connector-curvature="0" /></clipPath></defs><sodipodi:namedview
     pagecolor="#ffffff"
     bordercolor="#666666"
     borderopacity="1"
     objecttolerance="10"
     gridtolerance="10"
     guidetolerance="10"
     inkscape:pageopacity="0"
     inkscape:pageshadow="2"
     inkscape:window-width="1855"
     inkscape:window-height="1056"
     id="namedview4289"
     showgrid="false"
     fit-margin-top="0"
     fit-margin-left="0"
     fit-margin-right="0"
     fit-margin-bottom="0"
     inkscape:zoom="12.819008"
     inkscape:cx="17.896544"
     inkscape:cy="12.599897"
     inkscape:window-x="65"
     inkscape:window-y="24"
     inkscape:window-maximized="1"
     inkscape:current-layer="g4295" /><g
     id="g4295"
     inkscape:groupmode="layer"
     inkscape:label="gmail"
     transform="matrix(1.25,0,0,-1.25,-349.80564,152.0492)"><path
       style="fill:#222222;fill-opacity:1;fill-rule:nonzero;stroke:none"
       d="M 0 0 L 0 32 L 32 32 L 32 0 L 0 0 z M 3.78125 5.65625 L 28.21875 5.65625 C 24.149513 8.6378 20.074487 11.588137 16 14.5625 C 11.929087 11.58465 7.848975 8.638475 3.78125 5.65625 z M 4.875 10.90625 C 8.855025 13.808387 12.614138 16.561125 16.09375 19.09375 C 20.133938 16.144575 23.367775 13.740363 26.90625 11.15625 L 26.90625 26.34375 L 4.875 26.34375 L 4.875 10.90625 z "
       transform="matrix(0.8,0,0,-0.8,279.84451,121.63936)"
       id="rect3168" /></g></svg>