<?xml version="1.0" encoding="UTF-8" standalone="no"?>
<!-- Created with Inkscape (http://www.inkscape.org/) -->

<svg
   xmlns:dc="http://purl.org/dc/elements/1.1/"
   xmlns:cc="http://creativecommons.org/ns#"
   xmlns:rdf="http://www.w3.org/1999/02/22-rdf-syntax-ns#"
   xmlns:svg="http://www.w3.org/2000/svg"
   xmlns="http://www.w3.org/2000/svg"
   xmlns:sodipodi="http://sodipodi.sourceforge.net/DTD/sodipodi-0.dtd"
   xmlns:inkscape="http://www.inkscape.org/namespaces/inkscape"
   id="svg3390"
   version="1.1"
   inkscape:version="0.91 r13725"
   width="32"
   height="32"
   viewBox="0 0 32 32"
   sodipodi:docname="google-scholar-new.svg">
  <metadata
     id="metadata3396">
    <rdf:RDF>
      <cc:Work
         rdf:about="">
        <dc:format>image/svg+xml</dc:format>
        <dc:type
           rdf:resource="http://purl.org/dc/dcmitype/StillImage" />
        <dc:title></dc:title>
      </cc:Work>
    </rdf:RDF>
  </metadata>
  <defs
     id="defs3394">
    <clipPath
       clipPathUnits="userSpaceOnUse"
       id="clipPath3404">
      <rect
         id="rect3406"
         width="50.747898"
         height="50.747898"
         x="134.7731"
         y="318.63025" />
    </clipPath>
  </defs>
  <sodipodi:namedview
     pagecolor="#ffffff"
     bordercolor="#666666"
     borderopacity="1"
     objecttolerance="10"
     gridtolerance="10"
     guidetolerance="10"
     inkscape:pageopacity="0"
     inkscape:pageshadow="2"
     inkscape:window-width="3200"
     inkscape:window-height="1674"
     id="namedview3392"
     showgrid="false"
     inkscape:zoom="7.88866"
     inkscape:cx="24.07074"
     inkscape:cy="13.861152"
     inkscape:window-x="1920"
     inkscape:window-y="60"
     inkscape:window-maximized="1"
     inkscape:current-layer="svg3390" />
  <g
     id="g4886"
     transform="matrix(1.1059345,0,0,1.1059345,-1.8159073,-1.9217819)">
    <path
       inkscape:connector-curvature="0"
       id="path3412"
       d="m 16.10929,5.1928116 0,9.4300804 0,0.463013 a 6.0657982,6.0657982 0 0 1 1.53e-4,0 6.0657982,6.0657982 0 0 1 5.801319,4.312978 l 0.07603,-0.06096 5.877342,-4.715039 -5.877342,-4.7150401 -5.877564,-4.71504 z"
       style="fill:#356ac3;fill-opacity:1" />
    <path
       inkscape:connector-curvature="0"
       id="path3414"
       d="m 16.10929,5.1928116 -5.877343,4.71504 -5.8773424,4.7150404 5.8773424,4.715039 0.07314,0.05874 a 6.0657982,6.0657982 0 0 1 5.8042,-4.310761 l 0,-0.463013 0,-9.4300806 z"
       style="fill:#4285f4;fill-opacity:1" />
    <path
       inkscape:connector-curvature="0"
       id="path4216"
       d="m 15.722299,15.099426 a 6.0657982,6.0657982 0 0 0 -0.06051,0.0038 c 0.02012,-0.0016 0.04035,-0.0024 0.06051,-0.0038 z m 0.957726,0.01485 c 0.02466,0.0023 0.04922,0.0049 0.07381,0.0075 a 6.0657982,6.0657982 0 0 0 -0.07381,-0.0075 z m -1.589856,0.05851 a 6.0657982,6.0657982 0 0 0 -0.03124,0.0057 c 0.01047,-0.0018 0.02079,-0.004 0.03124,-0.0057 z m 2.189403,0.02859 c 0.01738,0.0034 0.03497,0.0062 0.05231,0.0097 a 6.0657982,6.0657982 0 0 0 -0.05231,-0.0097 z m -2.767672,0.09997 a 6.0657982,6.0657982 0 0 0 -0.043,0.01156 c 0.01428,-0.004 0.02869,-0.0077 0.043,-0.01156 z m 3.346386,0.04433 c 0.03146,0.0095 0.06272,0.01947 0.09398,0.02948 a 6.0657982,6.0657982 0 0 0 -0.09398,-0.02948 z m -3.931085,0.147172 a 6.0657982,6.0657982 0 0 0 -0.04078,0.01663 c 0.01366,-0.0054 0.02708,-0.01132 0.04078,-0.01663 z m 4.482758,0.04943 c 0.03939,0.01621 0.0787,0.03241 0.117688,0.04943 a 6.0657982,6.0657982 0 0 0 -0.117688,-0.04943 z m -5.01559,0.187288 a 6.0657982,6.0657982 0 0 0 -0.06117,0.03037 c 0.02023,-0.01047 0.04082,-0.02016 0.06117,-0.03037 z m 5.557732,0.06738 c 0.04427,0.02356 0.08823,0.04762 0.131878,0.07225 a 6.0657982,6.0657982 0 0 0 -0.131878,-0.07225 z m -6.089236,0.232728 a 6.0657982,6.0657982 0 0 0 -0.07181,0.047 c 0.02393,-0.01567 0.04765,-0.03166 0.07181,-0.047 z m 6.585054,0.06272 c 0.05849,0.03867 0.116227,0.07836 0.173326,0.119028 a 6.0657982,6.0657982 0 0 0 -0.173326,-0.119028 z m -7.0658,0.276833 a 6.0657982,6.0657982 0 0 0 -0.06693,0.05164 c 0.02197,-0.01762 0.04473,-0.03432 0.06693,-0.05164 z m 7.553861,0.08134 c 0.05051,0.04116 0.100648,0.08288 0.14983,0.125672 a 6.0657982,6.0657982 0 0 0 -0.14983,-0.125672 z m -8.021088,0.322271 a 6.0657982,6.0657982 0 0 0 -0.06606,0.0645 c 0.02191,-0.02163 0.04383,-0.04322 0.06606,-0.0645 z m 8.451742,0.06494 c 0.06037,0.05962 0.119636,0.120439 0.177538,0.182634 a 6.0657982,6.0657982 0 0 0 -0.177538,-0.182634 z m -8.861119,0.36793 a 6.0657982,6.0657982 0 0 0 -0.05453,0.06339 c 0.01787,-0.02143 0.03638,-0.04222 0.05453,-0.06339 z m 9.278032,0.08733 c 0.04886,0.05923 0.09673,0.119246 0.143404,0.180418 a 6.0657982,6.0657982 0 0 0 -0.143404,-0.180418 z m -9.651945,0.395858 a 6.0657982,6.0657982 0 0 0 -0.05651,0.08312 c 0.01868,-0.02784 0.0374,-0.05562 0.05651,-0.08312 z m 9.999706,0.07049 c 0.0516,0.07645 0.101828,0.153914 0.150054,0.232949 a 6.0657982,6.0657982 0 0 0 -0.150054,-0.232949 z m -10.317543,0.438858 a 6.0657982,6.0657982 0 0 0 -0.04455,0.08024 c 0.01451,-0.02698 0.02966,-0.05352 0.04455,-0.08024 z m 10.638041,0.09154 c 0.04494,0.08403 0.08764,0.169674 0.128774,0.256221 a 6.0657982,6.0657982 0 0 0 -0.128774,-0.256221 z m -10.907341,0.45415 a 6.0657982,6.0657982 0 0 0 -0.04322,0.103727 c 0.01423,-0.03468 0.0284,-0.0694 0.04322,-0.103727 z m 11.146273,0.04832 c 0.04411,0.10458 0.08586,0.210481 0.124342,0.318281 a 6.0657982,6.0657982 0 0 0 -0.124342,-0.318281 z m -11.351737,0.50003 a 6.0657982,6.0657982 0 0 0 -0.03391,0.104397 c 0.01059,-0.03514 0.0227,-0.06956 0.03391,-0.104397 z m -0.03391,0.104397 a 6.0657982,6.0657982 0 0 0 -0.261538,1.754981 6.0657982,6.0657982 0 0 0 6.065961,6.065739 6.0657982,6.0657982 0 0 0 6.065741,-6.065739 6.0657982,6.0657982 0 0 0 -0.264421,-1.752763 c -5.155253,0 -5.338069,-0.0022 -11.605743,-0.0022 z"
       style="fill:#a0c3ff;fill-opacity:1" />
    <path
       sodipodi:nodetypes="cccc"
       inkscape:connector-curvature="0"
       id="path4218"
       d="m 16.109511,15.085905 c -2.67334,7.7e-4 -5.030936,1.751764 -5.804422,4.310761 6.267674,0 6.450489,0.0022 11.605743,0.0022 -0.772354,-2.558776 -3.128519,-4.310463 -5.801321,-4.312976 z"
       style="fill:#76a7fa;fill-opacity:1" />
  </g>
  <path
     style="fill:#222222;fill-opacity:1"
     d="M 32 0 L 32 32 L 64 32 L 64 0 L 32 0 z M 48 3.8203125 L 54.5 9.0351562 L 61 14.25 L 54.5 19.464844 L 54.416016 19.53125 A 6.7083755 6.7083755 0 0 1 54.708984 21.470703 A 6.7083755 6.7083755 0 0 1 48 28.179688 A 6.7083755 6.7083755 0 0 1 41.291016 21.470703 A 6.7083755 6.7083755 0 0 1 41.580078 19.529297 L 41.5 19.464844 L 35 14.25 L 41.5 9.0351562 L 48 3.8203125 z M 41.580078 19.529297 C 41.674487 19.216955 41.798392 18.920031 41.933594 18.630859 A 6.7083755 6.7083755 0 0 0 41.580078 19.529297 z M 54.416016 19.53125 A 6.7083755 6.7083755 0 0 0 54.054688 18.613281 C 54.19385 18.908652 54.319531 19.2116 54.416016 19.53125 z M 48 14.761719 C 48.327129 14.762026 48.648192 14.795517 48.964844 14.841797 A 6.7083755 6.7083755 0 0 0 48.712891 14.802734 C 48.706429 14.802045 48.699819 14.801465 48.693359 14.800781 A 6.7083755 6.7083755 0 0 0 48.669922 14.796875 A 6.7083755 6.7083755 0 0 0 48.658203 14.796875 A 6.7083755 6.7083755 0 0 0 48 14.761719 z M 48 14.761719 A 6.7083755 6.7083755 0 0 0 47.007812 14.84375 C 47.333159 14.795053 47.663541 14.761816 48 14.761719 z M 46.875 14.859375 A 6.7083755 6.7083755 0 0 0 46.839844 14.865234 L 46.837891 14.865234 A 6.7083755 6.7083755 0 0 0 46.195312 15.011719 A 6.7083755 6.7083755 0 0 0 46.185547 15.013672 A 6.7083755 6.7083755 0 0 0 45.966797 15.085938 C 46.262998 14.991414 46.564296 14.912233 46.875 14.859375 z M 49.175781 14.873047 C 49.480995 14.927654 49.779357 15.002789 50.070312 15.097656 A 6.7083755 6.7083755 0 0 0 49.982422 15.064453 A 6.7083755 6.7083755 0 0 0 49.351562 14.900391 C 49.346956 14.899471 49.342522 14.899292 49.337891 14.898438 A 6.7083755 6.7083755 0 0 0 49.332031 14.896484 A 6.7083755 6.7083755 0 0 0 49.175781 14.873047 z M 45.765625 15.154297 A 6.7083755 6.7083755 0 0 0 44.945312 15.5 A 6.7083755 6.7083755 0 0 0 44.929688 15.507812 A 6.7083755 6.7083755 0 0 0 44.902344 15.521484 C 45.178438 15.377552 45.470095 15.25909 45.765625 15.154297 z M 50.242188 15.160156 C 50.507294 15.254728 50.766073 15.364034 51.015625 15.490234 A 6.7083755 6.7083755 0 0 0 50.625 15.302734 A 6.7083755 6.7083755 0 0 0 50.611328 15.294922 A 6.7083755 6.7083755 0 0 0 50.597656 15.289062 A 6.7083755 6.7083755 0 0 0 50.242188 15.160156 z M 44.867188 15.542969 A 6.7083755 6.7083755 0 0 0 44.337891 15.853516 A 6.7083755 6.7083755 0 0 0 44.330078 15.857422 A 6.7083755 6.7083755 0 0 0 44.101562 16.023438 C 44.346587 15.848026 44.600195 15.68425 44.867188 15.542969 z M 51.136719 15.548828 C 51.41302 15.695594 51.677067 15.863578 51.929688 16.046875 A 6.7083755 6.7083755 0 0 0 51.830078 15.970703 A 6.7083755 6.7083755 0 0 0 51.742188 15.910156 A 6.7083755 6.7083755 0 0 0 51.246094 15.605469 A 6.7083755 6.7083755 0 0 0 51.189453 15.574219 A 6.7083755 6.7083755 0 0 0 51.136719 15.548828 z M 43.939453 16.140625 A 6.7083755 6.7083755 0 0 0 43.810547 16.234375 A 6.7083755 6.7083755 0 0 0 43.804688 16.238281 A 6.7083755 6.7083755 0 0 0 43.296875 16.689453 A 6.7083755 6.7083755 0 0 0 43.289062 16.699219 A 6.7083755 6.7083755 0 0 0 43.244141 16.746094 C 43.46167 16.527119 43.694534 16.327266 43.939453 16.140625 z M 52.078125 16.160156 C 52.308339 16.337192 52.53049 16.524686 52.736328 16.730469 A 6.7083755 6.7083755 0 0 0 52.332031 16.355469 A 6.7083755 6.7083755 0 0 0 52.320312 16.34375 A 6.7083755 6.7083755 0 0 0 52.304688 16.332031 A 6.7083755 6.7083755 0 0 0 52.078125 16.160156 z M 52.824219 16.818359 C 53.030335 17.032217 53.217474 17.264859 53.394531 17.505859 A 6.7083755 6.7083755 0 0 0 53.263672 17.322266 A 6.7083755 6.7083755 0 0 0 53.251953 17.304688 A 6.7083755 6.7083755 0 0 0 53.236328 17.287109 A 6.7083755 6.7083755 0 0 0 52.824219 16.818359 z M 43.140625 16.857422 A 6.7083755 6.7083755 0 0 0 42.599609 17.507812 C 42.76705 17.279708 42.947084 17.061288 43.140625 16.857422 z M 42.501953 17.638672 A 6.7083755 6.7083755 0 0 0 42.441406 17.71875 A 6.7083755 6.7083755 0 0 0 42.431641 17.732422 A 6.7083755 6.7083755 0 0 0 42.027344 18.433594 C 42.168315 18.156101 42.326296 17.890691 42.501953 17.638672 z M 53.519531 17.679688 C 53.693942 17.933803 53.854801 18.198932 53.994141 18.478516 A 6.7083755 6.7083755 0 0 0 53.519531 17.679688 z "
     id="rect4898" />
</svg>
