<?xml version="1.0" encoding="UTF-8" standalone="no"?>
<!-- Created with Inkscape (http://www.inkscape.org/) -->

<svg
   xmlns:dc="http://purl.org/dc/elements/1.1/"
   xmlns:cc="http://creativecommons.org/ns#"
   xmlns:rdf="http://www.w3.org/1999/02/22-rdf-syntax-ns#"
   xmlns:svg="http://www.w3.org/2000/svg"
   xmlns="http://www.w3.org/2000/svg"
   xmlns:sodipodi="http://sodipodi.sourceforge.net/DTD/sodipodi-0.dtd"
   xmlns:inkscape="http://www.inkscape.org/namespaces/inkscape"
   version="1.1"
   width="32"
   height="32"
   id="svg2"
   inkscape:version="0.91 r13725"
   sodipodi:docname="google-plus-offset.svg">
  <metadata
     id="metadata14">
    <rdf:RDF>
      <cc:Work
         rdf:about="">
        <dc:format>image/svg+xml</dc:format>
        <dc:type
           rdf:resource="http://purl.org/dc/dcmitype/StillImage" />
        <dc:title></dc:title>
      </cc:Work>
    </rdf:RDF>
  </metadata>
  <defs
     id="defs12" />
  <sodipodi:namedview
     pagecolor="#ffffff"
     bordercolor="#666666"
     borderopacity="1"
     objecttolerance="10"
     gridtolerance="10"
     guidetolerance="10"
     inkscape:pageopacity="0"
     inkscape:pageshadow="2"
     inkscape:window-width="3200"
     inkscape:window-height="1674"
     id="namedview10"
     showgrid="false"
     inkscape:zoom="7.375"
     inkscape:cx="-11.254237"
     inkscape:cy="16"
     inkscape:window-x="1920"
     inkscape:window-y="60"
     inkscape:window-maximized="1"
     inkscape:current-layer="svg2" />
  <path
     d="m 0,32.00001 32,0 L 32,0 0,0 0,32.00001 z"
     style="fill:#d84937;fill-opacity:1;fill-rule:evenodd;stroke:none"
     id="path4" />
  <path
     d="M 7.0625,2.25 C 4.4114817,2.25 1.8684152,3.3157585 0,4.9375 L 0,17 c 1.4906082,1.238676 3.5007951,2 5.84375,2 0.3636811,0 0.7164253,-0.0063 1.0625,-0.03125 -0.3395057,0.650037 -0.59375,1.364907 -0.59375,2.125 0,1.281418 0.6907819,2.33957 1.5625,3.1875 -0.6585933,0 -1.3061692,0 -2,0 -2.1837348,0 -4.1746291,0.516204 -5.875,1.3125 L 0,28.25 c 1.5060449,-1.741844 4.1950531,-2.906265 7.09375,-2.875 1.027255,0.01091 2.0057569,0.156269 2.875,0.4375 2.389554,1.661936 4.078913,2.60612 4.5625,4.5 0.09099,0.384062 0.15625,0.783844 0.15625,1.1875 0,0.167475 -0.02022,0.336423 -0.03125,0.5 l 2.90625,0 c 0.04843,-0.320899 0.0625,-0.645626 0.0625,-0.96875 0,-3.321634 -0.969997,-5.325846 -4,-7.46875 C 12.588514,22.828557 10.59375,21.049099 10.59375,20 c 0,-1.229349 0.368133,-1.835351 2.21875,-3.28125 1.896892,-1.481949 3.21875,-3.544865 3.21875,-5.96875 0,-2.8848531 -1.275446,-5.6972574 -3.6875,-6.625 l 3.625,0 2.59375,-1.875 -11.5,0 z M 5.65625,3.875 c 2.953997,0.088762 5.739713,3.2135664 6.25,7.09375 0.509618,3.880559 -1.452371,6.963356 -4.40625,6.875 C 4.544797,17.7554 1.7288995,14.536152 1.21875,10.65625 0.70873201,6.7756786 2.7016965,3.7866501 5.65625,3.875 z"
     style="fill:#f9f9f9;fill-opacity:1;stroke:none"
     id="path6" />
  <path
     d="m 31.57811,7.47136 -4.99527,0 0,-4.9561 -2.53853,0 0,4.9561 -5.04512,0 0,2.56824 5.04512,0 0,5.04512 2.53853,0 0,-5.04827 4.99527,0 0,-2.56509 z"
     style="fill:#f9f9f9;fill-opacity:1;stroke:none"
     id="path8" />
  <path
     style="fill:#222222;fill-opacity:1;fill-rule:evenodd;stroke:none"
     d="M 32,7.9661e-7 32,4.9375008 c 1.868415,-1.621742 4.411482,-2.6875 7.0625,-2.6875 l 11.5,0 -2.59375,1.875 -3.625,0 c 2.412054,0.927742 3.6875,3.740147 3.6875,6.6249992 0,2.423885 -1.321858,4.486801 -3.21875,5.96875 -1.850617,1.445899 -2.21875,2.051901 -2.21875,3.28125 0,1.049099 1.994764,2.828557 3.03125,3.5625 3.030003,2.142904 4,4.147116 4,7.46875 0,0.323124 -0.01407,0.647851 -0.0625,0.96875 l 14.437501,0 0,-31.99999920339 -32.000001,0 z M 56.044921,2.5136728 l 2.53711,0 0,4.957031 4.99609,0 0,2.5644532 -4.99609,0 0,5.048828 -2.53711,0 0,-5.044922 -5.044921,0 0,-2.5683592 5.044921,0 0,-4.957031 z M 37.65625,3.8750008 c -2.954554,-0.08835 -4.947518,2.900679 -4.4375,6.7812492 0.510149,3.879902 3.326047,7.09915 6.28125,7.1875 2.953879,0.08836 4.915868,-2.994441 4.40625,-6.875 -0.510287,-3.8801832 -3.296003,-7.0049872 -6.25,-7.0937492 z M 32,17 l 0,8.59375 c 1.700371,-0.796296 3.691265,-1.3125 5.875,-1.3125 l 2,0 c -0.871718,-0.84793 -1.5625,-1.906082 -1.5625,-3.1875 0,-0.760093 0.254244,-1.474963 0.59375,-2.125 C 38.560175,18.9937 38.207431,19 37.84375,19 35.500795,19 33.490608,18.238676 32,17 Z m 7.09375,8.375 C 36.195053,25.34373 33.506045,26.508156 32,28.25 l 0,3.75 14.65625,0 c 0.01103,-0.163577 0.03125,-0.332525 0.03125,-0.5 0,-0.403656 -0.06526,-0.803438 -0.15625,-1.1875 -0.483587,-1.89388 -2.172946,-2.838064 -4.5625,-4.5 -0.869243,-0.281231 -1.847745,-0.42659 -2.875,-0.4375 z"
     id="path4144"
     inkscape:connector-curvature="0" />
</svg>
