<?xml version="1.0" encoding="UTF-8" standalone="no"?>
<!-- Created with Inkscape (http://www.inkscape.org/) -->

<svg
   xmlns:dc="http://purl.org/dc/elements/1.1/"
   xmlns:cc="http://creativecommons.org/ns#"
   xmlns:rdf="http://www.w3.org/1999/02/22-rdf-syntax-ns#"
   xmlns:svg="http://www.w3.org/2000/svg"
   xmlns="http://www.w3.org/2000/svg"
   xmlns:sodipodi="http://sodipodi.sourceforge.net/DTD/sodipodi-0.dtd"
   xmlns:inkscape="http://www.inkscape.org/namespaces/inkscape"
   id="svg3039"
   version="1.1"
   inkscape:version="0.48.4 r9939"
   width="32"
   height="32"
   sodipodi:docname="google_scholar.svg">
  <metadata
     id="metadata3045">
    <rdf:RDF>
      <cc:Work
         rdf:about="">
        <dc:format>image/svg+xml</dc:format>
        <dc:type
           rdf:resource="http://purl.org/dc/dcmitype/StillImage" />
        <dc:title></dc:title>
      </cc:Work>
    </rdf:RDF>
  </metadata>
  <defs
     id="defs3043">
    <clipPath
       clipPathUnits="userSpaceOnUse"
       id="clipPath3053">
      <rect
         style="fill:#000000;fill-opacity:1;stroke:none"
         id="rect3055"
         width="91.636368"
         height="88.111885"
         x="-39.650349"
         y="41.41259" />
    </clipPath>
  </defs>
  <sodipodi:namedview
     pagecolor="#ffffff"
     bordercolor="#666666"
     borderopacity="1"
     objecttolerance="10"
     gridtolerance="10"
     guidetolerance="10"
     inkscape:pageopacity="0"
     inkscape:pageshadow="2"
     inkscape:window-width="1855"
     inkscape:window-height="1056"
     id="namedview3041"
     showgrid="false"
     fit-margin-top="0"
     fit-margin-left="0"
     fit-margin-right="0"
     fit-margin-bottom="0"
     inkscape:zoom="9.2524024"
     inkscape:cx="15.561829"
     inkscape:cy="-3.7447552"
     inkscape:window-x="65"
     inkscape:window-y="24"
     inkscape:window-maximized="1"
     inkscape:current-layer="svg3039" />
  <path
     style="fill:#222222;fill-opacity:1;stroke:none"
     d="M 0 0 L 0 32 L 32 32 L 32 0 L 0 0 z M 10.875 4.4375 C 11.337332 4.4116133 11.812866 4.4844509 12.28125 4.625 C 13.218017 4.9060982 14.177385 5.4777485 15.15625 6.25 C 15.442601 6.4759098 15.711549 6.7060654 16 6.96875 C 16.279515 6.7159434 16.566421 6.4687919 16.84375 6.25 C 17.822615 5.4777485 18.781983 4.9060982 19.71875 4.625 C 20.187134 4.4844509 20.662668 4.4116132 21.125 4.4375 C 21.587332 4.4633868 22.027749 4.60718 22.4375 4.84375 C 23.257002 5.3168901 23.775055 6.1419369 24 7.09375 C 24.224945 8.0455631 24.210607 9.1411523 24.03125 10.375 C 23.978687 10.736593 23.895754 11.117316 23.8125 11.5 C 24.17983 11.617357 24.539871 11.710188 24.875 11.84375 C 26.033221 12.305346 27.006928 12.860535 27.71875 13.53125 C 28.430572 14.201965 28.90625 15.053719 28.90625 16 C 28.90625 16.94628 28.430572 17.798035 27.71875 18.46875 C 27.006928 19.139465 26.033221 19.663404 24.875 20.125 C 24.539871 20.258562 24.17983 20.382642 23.8125 20.5 C 23.895795 20.883006 23.97881 21.26425 24.03125 21.625 C 24.210608 22.858847 24.224945 23.954437 24 24.90625 C 23.775055 25.858063 23.257002 26.68311 22.4375 27.15625 C 21.617997 27.62939 20.655517 27.656098 19.71875 27.375 C 18.781983 27.093902 17.822615 26.522251 16.84375 25.75 C 16.561634 25.527431 16.284172 25.289529 16 25.03125 C 15.720485 25.284057 15.433579 25.531208 15.15625 25.75 C 14.177386 26.522252 13.218017 27.093902 12.28125 27.375 C 11.344483 27.656099 10.382003 27.629391 9.5625 27.15625 C 8.7429973 26.68311 8.2561952 25.858063 8.03125 24.90625 C 7.8063052 23.954437 7.7893928 22.858847 7.96875 21.625 C 8.0214117 21.262725 8.1021388 20.882622 8.1875 20.5 C 7.8201702 20.382642 7.4601285 20.258562 7.125 20.125 C 5.9667782 19.663404 4.9930717 19.139465 4.28125 18.46875 C 3.5694283 17.798035 3.09375 16.94628 3.09375 16 C 3.09375 15.053719 3.5694283 14.201965 4.28125 13.53125 C 4.9930717 12.860535 5.9667782 12.305346 7.125 11.84375 C 7.4601285 11.710188 7.8201702 11.617357 8.1875 11.5 C 8.1022839 11.117133 8.0214117 10.737275 7.96875 10.375 C 7.7893928 9.1411528 7.8063047 8.0455631 8.03125 7.09375 C 8.2561952 6.1419369 8.7429973 5.3168901 9.5625 4.84375 C 9.9722514 4.6071799 10.412668 4.4633867 10.875 4.4375 z M 10.875 5.84375 C 10.626347 5.8545793 10.422126 5.9318728 10.25 6.03125 C 9.905747 6.2300044 9.6030693 6.6119244 9.4375 7.3125 C 9.2719306 8.0130756 9.2746827 8.9736845 9.4375 10.09375 C 9.484112 10.414407 9.5192431 10.748115 9.59375 11.09375 C 10.598592 10.854033 11.692756 10.650588 12.84375 10.53125 C 13.52141 9.6070019 14.231362 8.7756207 14.9375 8.03125 C 14.677479 7.7947163 14.441313 7.5439896 14.1875 7.34375 C 13.298903 6.6427131 12.439501 6.1756505 11.75 5.96875 C 11.40525 5.8652997 11.123653 5.8329207 10.875 5.84375 z M 21.125 5.84375 C 20.876347 5.8329207 20.59475 5.8652998 20.25 5.96875 C 19.560499 6.1756505 18.732347 6.6739631 17.84375 7.375 C 17.59062 7.5747008 17.322236 7.7960975 17.0625 8.03125 C 17.767816 8.7779464 18.478362 9.6076477 19.15625 10.53125 C 20.292935 10.649104 21.380579 10.827141 22.375 11.0625 C 22.449213 10.72503 22.516883 10.407563 22.5625 10.09375 C 22.72532 8.973684 22.728069 8.0130756 22.5625 7.3125 C 22.39693 6.6119244 22.094253 6.2300044 21.75 6.03125 C 21.577874 5.931873 21.373653 5.8545793 21.125 5.84375 z M 16 9.09375 C 15.616907 9.5000468 15.222352 9.9390675 14.84375 10.40625 C 15.223041 10.392534 15.611876 10.375 16 10.375 C 16.377641 10.375 16.755704 10.393258 17.125 10.40625 C 16.747148 9.9398269 16.37992 9.5001763 16 9.09375 z M 16 11.875 C 15.206722 11.875 14.436748 11.909578 13.6875 11.96875 C 13.256501 12.590027 12.839875 13.240565 12.4375 13.9375 C 12.036752 14.631616 11.66948 15.314087 11.34375 16 C 11.66689 16.677816 12.041243 17.376164 12.4375 18.0625 C 12.839875 18.759435 13.256062 19.410642 13.6875 20.03125 C 14.436748 20.090422 15.206722 20.125 16 20.125 C 16.782442 20.125 17.541537 20.088862 18.28125 20.03125 C 18.715059 19.407839 19.157903 18.763283 19.5625 18.0625 C 19.963248 17.368384 20.33052 16.685913 20.65625 16 C 20.330297 15.314697 19.963248 14.631617 19.5625 13.9375 C 19.161251 13.242517 18.744418 12.589686 18.3125 11.96875 C 17.563252 11.909578 16.793278 11.875 16 11.875 z M 11.71875 12.1875 C 11.111987 12.2808 10.550898 12.402526 10 12.53125 C 10.161127 13.067458 10.34349 13.623902 10.5625 14.1875 C 10.738126 13.855937 10.933301 13.519533 11.125 13.1875 C 11.320877 12.848232 11.514727 12.510859 11.71875 12.1875 z M 20.28125 12.1875 C 20.485339 12.510673 20.679123 12.848232 20.875 13.1875 C 21.071081 13.527123 21.226806 13.879943 21.40625 14.21875 C 21.632799 13.636756 21.831153 13.083057 22 12.53125 C 21.449102 12.402526 20.888013 12.2808 20.28125 12.1875 z M 8.5625 12.9375 C 8.2298838 13.043848 7.8922399 13.13104 7.59375 13.25 C 6.5423358 13.669029 5.7114316 14.162575 5.1875 14.65625 C 4.6635684 15.149925 4.46875 15.602491 4.46875 16 C 4.46875 16.397508 4.6635684 16.818825 5.1875 17.3125 C 5.7114316 17.806176 6.5423358 18.299721 7.59375 18.71875 C 7.8922399 18.83771 8.2298838 18.956152 8.5625 19.0625 C 8.8630847 18.079578 9.2510927 17.049429 9.71875 16 C 9.2498769 14.952626 8.8627552 13.920979 8.5625 12.9375 z M 23.4375 12.9375 C 23.144605 13.921372 22.778663 14.952692 22.3125 16 C 22.778035 17.042629 23.144367 18.076895 23.4375 19.0625 C 23.770116 18.956152 24.10776 18.83771 24.40625 18.71875 C 25.457665 18.299721 26.288568 17.806176 26.8125 17.3125 C 27.336432 16.818825 27.53125 16.397508 27.53125 16 C 27.53125 15.602491 27.336432 15.149925 26.8125 14.65625 C 26.288568 14.162575 25.457665 13.669029 24.40625 13.25 C 24.10776 13.13104 23.770116 13.043848 23.4375 12.9375 z M 16 13.9375 C 17.146364 13.9375 18.0625 14.853636 18.0625 16 C 18.0625 17.146364 17.146364 18.0625 16 18.0625 C 14.853636 18.0625 13.9375 17.146364 13.9375 16 C 13.9375 14.853636 14.853636 13.9375 16 13.9375 z M 10.59375 17.78125 C 10.367201 18.363244 10.168847 18.916943 10 19.46875 C 10.550898 19.597474 11.111987 19.7192 11.71875 19.8125 C 11.514575 19.487429 11.321631 19.153074 11.125 18.8125 C 10.928919 18.472877 10.773194 18.120057 10.59375 17.78125 z M 21.4375 17.8125 C 21.261873 18.144063 21.066699 18.480467 20.875 18.8125 C 20.679123 19.151768 20.485273 19.489141 20.28125 19.8125 C 20.888013 19.7192 21.449102 19.597474 22 19.46875 C 21.838821 18.932348 21.656167 18.37551 21.4375 17.8125 z M 9.625 20.90625 C 9.5479244 21.253728 9.4843864 21.583705 9.4375 21.90625 C 9.2746827 23.026316 9.2719307 23.986924 9.4375 24.6875 C 9.6030694 25.388075 9.9057478 25.770001 10.25 25.96875 C 10.594253 26.16751 11.060499 26.23815 11.75 26.03125 C 12.439501 25.824349 13.298903 25.326036 14.1875 24.625 C 14.430806 24.433049 14.689047 24.224739 14.9375 24 C 14.224158 23.246369 13.524966 22.376202 12.84375 21.4375 C 11.705812 21.319516 10.620336 21.141989 9.625 20.90625 z M 22.375 20.90625 C 21.379664 21.141989 20.294188 21.319516 19.15625 21.4375 C 18.473966 22.36983 17.773844 23.218892 17.0625 23.96875 C 17.321809 24.204552 17.590619 24.4253 17.84375 24.625 C 18.732347 25.326037 19.560499 25.82435 20.25 26.03125 C 20.939501 26.238155 21.405748 26.167504 21.75 25.96875 C 22.094253 25.769995 22.39693 25.388076 22.5625 24.6875 C 22.728066 23.986925 22.725317 23.026316 22.5625 21.90625 C 22.515608 21.583668 22.45029 21.254531 22.375 20.90625 z M 14.875 21.59375 C 15.252587 22.059651 15.619028 22.499291 16 22.90625 C 16.380705 22.499707 16.746657 22.060689 17.125 21.59375 C 16.755704 21.606742 16.377641 21.625 16 21.625 C 15.622359 21.625 15.244296 21.606742 14.875 21.59375 z "
     id="rect3049" />
</svg>
