<?xml version="1.0" encoding="UTF-8" standalone="no"?>
<!-- Created with Inkscape (http://www.inkscape.org/) -->

<svg
   xmlns:dc="http://purl.org/dc/elements/1.1/"
   xmlns:cc="http://creativecommons.org/ns#"
   xmlns:rdf="http://www.w3.org/1999/02/22-rdf-syntax-ns#"
   xmlns:svg="http://www.w3.org/2000/svg"
   xmlns="http://www.w3.org/2000/svg"
   xmlns:sodipodi="http://sodipodi.sourceforge.net/DTD/sodipodi-0.dtd"
   xmlns:inkscape="http://www.inkscape.org/namespaces/inkscape"
   id="svg3004"
   version="1.1"
   inkscape:version="0.48.4 r9939"
   width="32"
   height="32"
   xml:space="preserve"
   sodipodi:docname="linkedin.svg"><metadata
     id="metadata3010"><rdf:RDF><cc:Work
         rdf:about=""><dc:format>image/svg+xml</dc:format><dc:type
           rdf:resource="http://purl.org/dc/dcmitype/StillImage" /><dc:title /></cc:Work></rdf:RDF></metadata><defs
     id="defs3008" /><sodipodi:namedview
     pagecolor="#ffffff"
     bordercolor="#666666"
     borderopacity="1"
     objecttolerance="10"
     gridtolerance="10"
     guidetolerance="10"
     inkscape:pageopacity="0"
     inkscape:pageshadow="2"
     inkscape:window-width="927"
     inkscape:window-height="1028"
     id="namedview3006"
     showgrid="false"
     fit-margin-top="0"
     fit-margin-left="0"
     fit-margin-right="0"
     fit-margin-bottom="0"
     inkscape:zoom="8.245508"
     inkscape:cx="24.363679"
     inkscape:cy="13.44203"
     inkscape:window-x="992"
     inkscape:window-y="24"
     inkscape:window-maximized="0"
     inkscape:current-layer="g3012" /><g
     id="g3012"
     inkscape:groupmode="layer"
     inkscape:label="ink_ext_XXXXXX"
     transform="matrix(1.25,0,0,-1.25,0,32)"><rect
       style="fill:#0977b6;fill-opacity:1;fill-rule:nonzero;stroke:none"
       id="rect3031"
       width="25.6"
       height="25.6"
       x="0"
       y="-25.6"
       transform="scale(1,-1)"
       ry="0" /><path
       inkscape:connector-curvature="0"
       id="path3018"
       style="fill:#ffffff;fill-opacity:1;fill-rule:nonzero;stroke:none"
       d="m 5.6932859,22.075496 c 1.2138904,0 2.2004622,-0.986548 2.2004622,-2.201007 0,-1.215645 -0.9865718,-2.202311 -2.2004622,-2.202311 -1.2171259,0 -2.2009244,0.986666 -2.2009244,2.202311 0,1.214459 0.9837985,2.201007 2.2009244,2.201007 m -1.8995318,-6.0736 3.7986015,0 0,-12.2167582 -3.7986015,0 0,12.2167582" /><path
       inkscape:connector-curvature="0"
       id="path3020"
       style="fill:#ffffff;fill-opacity:1;fill-rule:nonzero;stroke:none"
       d="m 9.973843,16.001896 3.642631,0 0,-1.668503 0.05179,0 c 0.507022,0.960118 1.745896,1.973096 3.593126,1.973096 3.842133,0 4.551822,-2.529659 4.551822,-5.820326 l 0,-6.7010252 -3.792593,0 0,5.9407407 c 0,1.4175885 -0.02785,3.2398105 -1.973689,3.2398105 -1.975822,0 -2.277214,-1.543467 -2.277214,-3.1369364 l 0,-6.0436148 -3.795876,0 0,12.2167582" /></g></svg>