<?xml version="1.0" encoding="UTF-8" standalone="no"?>
<!-- Created with Inkscape (http://www.inkscape.org/) -->

<svg
   xmlns:dc="http://purl.org/dc/elements/1.1/"
   xmlns:cc="http://creativecommons.org/ns#"
   xmlns:rdf="http://www.w3.org/1999/02/22-rdf-syntax-ns#"
   xmlns:svg="http://www.w3.org/2000/svg"
   xmlns="http://www.w3.org/2000/svg"
   xmlns:sodipodi="http://sodipodi.sourceforge.net/DTD/sodipodi-0.dtd"
   xmlns:inkscape="http://www.inkscape.org/namespaces/inkscape"
   width="40.965374"
   height="34.371876"
   id="svg3354"
   version="1.1"
   inkscape:version="0.48.4 r9939"
   sodipodi:docname="logo.svg">
  <defs
     id="defs3356" />
  <sodipodi:namedview
     id="base"
     pagecolor="#ffffff"
     bordercolor="#666666"
     borderopacity="1.0"
     inkscape:pageopacity="0.0"
     inkscape:pageshadow="2"
     inkscape:zoom="10.819242"
     inkscape:cx="14.05017"
     inkscape:cy="12.056002"
     inkscape:document-units="px"
     inkscape:current-layer="layer1"
     showgrid="false"
     fit-margin-top="0"
     fit-margin-left="0"
     fit-margin-right="0"
     fit-margin-bottom="0"
     inkscape:window-width="1855"
     inkscape:window-height="1056"
     inkscape:window-x="65"
     inkscape:window-y="24"
     inkscape:window-maximized="1" />
  <metadata
     id="metadata3359">
    <rdf:RDF>
      <cc:Work
         rdf:about="">
        <dc:format>image/svg+xml</dc:format>
        <dc:type
           rdf:resource="http://purl.org/dc/dcmitype/StillImage" />
        <dc:title />
      </cc:Work>
    </rdf:RDF>
  </metadata>
  <g
     inkscape:label="Layer 1"
     inkscape:groupmode="layer"
     id="layer1"
     transform="translate(-354.51731,-515.17625)">
    <path
       inkscape:connector-curvature="0"
       id="path3181"
       style="fill:#9191e9;fill-opacity:1;fill-rule:nonzero;stroke:none"
       d="m 356.97356,528.70312 11.465,0 0,-7.39 -13.92125,0 0,-6.13625 21.9225,0 0,34.37125 -21.875,0 0,-6.1375 13.87375,0 0,-8.57 -11.465,0 0,-6.1375 z" />
    <path
       inkscape:connector-curvature="0"
       id="path3185"
       style="fill:#9191e9;fill-opacity:1;fill-rule:nonzero;stroke:none"
       d="m 394.32122,534.61625 c -0.96125,-1.3775 -2.44875,-2.295 -4.4625,-2.75125 1.60625,-0.645 2.79375,-1.60375 3.56375,-2.87875 0.77125,-1.27375 1.1575,-2.73125 1.1575,-4.3675 0,-3.1325 -1.19625,-5.4875 -3.58875,-7.07 -2.39125,-1.58125 -5.72,-2.3725 -9.985,-2.3725 l -2.54625,0 0,6.13625 2.54625,0 c 1.88875,0 3.28875,0.335 4.20125,1.00375 0.9125,0.66875 1.37,1.73625 1.37,3.19875 0,1.29125 -0.44875,2.27 -1.345,2.93875 -0.8975,0.66875 -2.25125,1.02125 -4.06125,1.0525 l -2.71125,0 0,5.28625 4.69375,0 c 1.6375,0 2.82125,0.3825 3.5525,1.145 0.7325,0.76375 1.09875,1.89375 1.09875,3.38875 0,1.38375 -0.425,2.41125 -1.27375,3.08 -0.85,0.67 -2.12625,1.00375 -3.825,1.00375 l -4.24625,0 0,6.1375 4.24625,0 c 4.20125,0 7.4275,-0.85875 9.67875,-2.5725 2.25,-1.71625 3.375,-4.25125 3.375,-7.6025 0,-1.795 -0.47875,-3.37875 -1.43875,-4.75625" />
  </g>
</svg>
