<?xml version="1.0" encoding="UTF-8" standalone="no"?>
<!-- jm3: twitter logo deconstructed into scalable SVG, by jm3 -->

<svg
   xmlns:dc="http://purl.org/dc/elements/1.1/"
   xmlns:cc="http://creativecommons.org/ns#"
   xmlns:rdf="http://www.w3.org/1999/02/22-rdf-syntax-ns#"
   xmlns:svg="http://www.w3.org/2000/svg"
   xmlns="http://www.w3.org/2000/svg"
   xmlns:sodipodi="http://sodipodi.sourceforge.net/DTD/sodipodi-0.dtd"
   xmlns:inkscape="http://www.inkscape.org/namespaces/inkscape"
   version="1.1"
   id="jm3_twitter"
   x="0px"
   y="0px"
   width="32"
   height="32"
   viewBox="116.539 136.684 32 32"
   enable-background="new 116.539 136.684 150 150"
   xml:space="preserve"
   inkscape:version="0.48.4 r9939"
   sodipodi:docname="twitter_gray.svg"><metadata
   id="metadata3063"><rdf:RDF><cc:Work
       rdf:about=""><dc:format>image/svg+xml</dc:format><dc:type
         rdf:resource="http://purl.org/dc/dcmitype/StillImage" /><dc:title></dc:title></cc:Work></rdf:RDF></metadata><defs
   id="defs3061"><clipPath
     clipPathUnits="userSpaceOnUse"
     id="clipPath3867"><rect
       style="fill:#ffff00;fill-opacity:0.31372549"
       id="rect3869"
       width="199.82518"
       height="199.82518"
       x="89.790741"
       y="109.41126" /></clipPath></defs><sodipodi:namedview
   pagecolor="#ffffff"
   bordercolor="#666666"
   borderopacity="1"
   objecttolerance="10"
   gridtolerance="10"
   guidetolerance="10"
   inkscape:pageopacity="0"
   inkscape:pageshadow="2"
   inkscape:window-width="1855"
   inkscape:window-height="1056"
   id="namedview3059"
   showgrid="false"
   fit-margin-top="0"
   fit-margin-left="0"
   fit-margin-right="0"
   fit-margin-bottom="0"
   inkscape:zoom="29.077934"
   inkscape:cx="3.6208828"
   inkscape:cy="20.926989"
   inkscape:window-x="65"
   inkscape:window-y="24"
   inkscape:window-maximized="1"
   inkscape:current-layer="jm3_twitter" />

  &quot;

  
  
  
  
  
  
  
  
  
  
  
  
  

<path
   style="fill:#222222;fill-opacity:1"
   d="M 0 0 L 0 32 L 32 32 L 32 0 L 0 0 z M 20.8125 7.125 C 22.19865 7.125 23.44274 7.71053 24.3125 8.65625 C 25.46231 8.43639 26.54278 7.98758 27.46875 7.34375 C 27.0985 8.51619 26.26422 9.4589 25.1875 10.03125 C 25.1915 10.04045 25.1835 10.0535 25.1875 10.0625 C 25.1925 10.0747 25.21375 10.08145 25.21875 10.09375 C 26.11313 9.98111 26.96488 9.72045 27.75 9.34375 C 27.32015 10.37224 26.54906 11.23269 25.5625 11.75 C 25.5635 11.7917 25.5625 11.833 25.5625 11.875 C 25.573 12.0413 25.59375 12.20418 25.59375 12.375 C 25.59375 19.91528 19.47778 26.03125 11.9375 26.03125 C 9.2248 26.03125 6.68749 25.20789 4.5625 23.84375 C 4.8181 23.86345 5.08311 23.90625 5.34375 23.90625 C 7.67789 23.90625 9.83095 23.09797 11.53125 21.75 C 9.63247 21.54447 8.07466 20.24598 7.46875 18.5 C 7.68939 18.53 7.92738 18.5625 8.15625 18.5625 C 8.67166 18.5625 9.15903 18.45692 9.625 18.3125 C 7.48035 17.91848 5.84501 16.12468 5.6875 13.90625 C 6.18966 14.08314 6.74983 14.1875 7.3125 14.1875 C 7.38515 14.1875 7.45945 14.1905 7.53125 14.1875 C 6.43799 13.32268 5.75 12.0022 5.75 10.5 C 5.75 9.56296 6.0298 8.7026 6.5 7.96875 C 8.83615 10.78096 12.2719 12.59184 16.15625 12.8125 C 16.09685 12.51193 16.0625 12.19303 16.0625 11.875 C 16.0625 9.24674 18.18424 7.125 20.8125 7.125 z "
   transform="translate(116.539,136.684)"
   id="rect3838" /></svg>