<?xml version="1.0" encoding="UTF-8" standalone="no"?>
<svg
   xmlns:dc="http://purl.org/dc/elements/1.1/"
   xmlns:cc="http://creativecommons.org/ns#"
   xmlns:rdf="http://www.w3.org/1999/02/22-rdf-syntax-ns#"
   xmlns:svg="http://www.w3.org/2000/svg"
   xmlns="http://www.w3.org/2000/svg"
   id="svg2"
   height="32"
   width="32"
   version="1.1">
  <metadata
     id="metadata12">
    <rdf:RDF>
      <cc:Work
         rdf:about="">
        <dc:format>image/svg+xml</dc:format>
        <dc:type
           rdf:resource="http://purl.org/dc/dcmitype/StillImage" />
        <dc:title></dc:title>
      </cc:Work>
    </rdf:RDF>
  </metadata>
  <defs
     id="defs10" />
  <rect
     id="rect4"
     style="fill:#27a9e1;fill-opacity:1"
     y="0"
     x="0"
     height="32"
     width="32" />
  <path
     id="path6"
     style="fill:#ffffff;fill-opacity:1"
     d="m 20.8125,7.125 c -2.62826,0 -4.75,2.12174 -4.75,4.75 0,0.31803 0.0343,0.63693 0.0937,0.9375 -3.88435,-0.22066 -7.3201,-2.03154 -9.65625,-4.84375 -0.4702,0.73385 -0.75,1.59421 -0.75,2.53125 0,1.5022 0.68799,2.82268 1.78125,3.6875 -0.0718,0.003 -0.1461,0 -0.21875,0 -0.56267,0 -1.12284,-0.10436 -1.625,-0.28125 0.15751,2.21843 1.79285,4.01223 3.9375,4.40625 -0.46597,0.14442 -0.95334,0.25 -1.46875,0.25 -0.22887,0 -0.46686,-0.0325 -0.6875,-0.0625 0.60591,1.74598 2.16372,3.04447 4.0625,3.25 -1.7003,1.34797 -3.85336,2.15625 -6.1875,2.15625 -0.26064,0 -0.52565,-0.0428 -0.78125,-0.0625 2.12499,1.36414 4.6623,2.1875 7.375,2.1875 7.54028,0 13.65625,-6.11597 13.65625,-13.65625 0,-0.17082 -0.0207,-0.3337 -0.0312,-0.5 0,-0.042 0.001,-0.0833 0,-0.125 0.98656,-0.51731 1.75765,-1.37776 2.1875,-2.40625 -0.78512,0.3767 -1.63687,0.63736 -2.53125,0.75 -0.005,-0.0123 -0.0262,-0.019 -0.0312,-0.0312 -0.004,-0.009 0.004,-0.022 0,-0.0312 1.07672,-0.57235 1.911,-1.51506 2.28125,-2.6875 -0.92597,0.64383 -2.00644,1.09264 -3.15625,1.3125 -0.86976,-0.94572 -2.11385,-1.53125 -3.5,-1.53125 z" />
  <path
     id="path4"
     style="fill:#222222;fill-opacity:1"
     d="M 32,-6.3e-7 32,32 64,32 64,-6.3e-7 l -32,0 z M 52.8125,7.1249994 c 1.38615,0 2.63024,0.58553 3.5,1.53125 1.14981,-0.21986 2.23028,-0.66867 3.15625,-1.3125 -0.37025,1.17244 -1.20453,2.11515 -2.28125,2.6874996 0.004,0.009 -0.004,0.0222 0,0.0312 0.005,0.0122 0.0263,0.0189 0.0312,0.0312 0.89438,-0.1126396 1.74613,-0.3732996 2.53125,-0.7499996 -0.42985,1.0284896 -1.20094,1.8889396 -2.1875,2.4062496 0.001,0.0417 0,0.083 0,0.125 0.0105,0.1663 0.0312,0.32918 0.0312,0.5 0,7.540281 -6.11597,13.656251 -13.65625,13.656251 -2.7127,0 -5.25001,-0.82336 -7.375,-2.1875 0.2556,0.0197 0.52061,0.0625 0.78125,0.0625 2.33414,0 4.4872,-0.80828 6.1875,-2.15625 -1.89878,-0.20553 -3.45659,-1.50402 -4.0625,-3.250001 0.22064,0.03 0.45863,0.0625 0.6875,0.0625 0.51541,0 1.00278,-0.10558 1.46875,-0.25 -2.14465,-0.39402 -3.77999,-2.18782 -3.9375,-4.40625 0.50216,0.17689 1.06233,0.28125 1.625,0.28125 0.0727,0 0.14695,0.003 0.21875,0 -1.09326,-0.86482 -1.78125,-2.1853 -1.78125,-3.6875 0,-0.9370396 0.2798,-1.7973996 0.75,-2.5312496 2.33615,2.8122096 5.7719,4.6230896 9.65625,4.8437496 -0.0594,-0.30057 -0.0937,-0.61947 -0.0937,-0.9375 0,-2.6282596 2.12174,-4.7499996 4.75,-4.7499996 z" />
</svg>
